<?xml version="1.0" encoding="UTF-8"?>
<svg id="Capa_2" data-name="Capa 2" xmlns="http://www.w3.org/2000/svg" viewBox="0 0 793.7 287.25">
  <defs>
    <style>.cls-1 {
  fill: #fff;
  stroke-width: 0;
}
</style>
  </defs>
  <g id="svg7">
    <g>
      <path id="path2" class="cls-1" d="M271.67,154.13c-5.22,6.9-70.11,96.16-78.33,101.67l-11.67-18.34c11.21-2.62,21.83-10.91,26.58-23.67,6.44-17.27,1.69-38.93-14.4-49.29-12.79-8.24-31.16-10.37-48.72-10.37h-38.46v128.33h33.33v-53.33l33.34,53.33h38.33l13.33-18.33h46.67v18.33h30v-128.33h-30ZM148.6,219.13h-8.6v-36.67h8.6c18.33,0,28.31,5.11,28.48,18.33.16,13.44-9.29,18.34-28.48,18.34ZM271.67,237.46h-25l25-35v35ZM503.79,150.29c-29.76,0-55.06,18.78-64.46,45-9.4-26.22-34.71-45-64.46-45-37.76,0-68.37,30.25-68.37,67.57s30.61,67.56,68.37,67.56c29.75,0,55.06-18.78,64.46-45,9.4,26.22,34.71,45,64.46,45,37.76,0,68.37-30.25,68.37-67.56s-30.61-67.57-68.37-67.57ZM435.98,209.13h-57.64v26.67h27.86c-5.98,11.99-17.77,20.16-31.33,20.16-19.61,0-35.5-17.06-35.5-38.1s15.89-38.1,35.5-38.1c12.62,0,23.69,7.06,29.99,17.7h33.73c-1.21,3.76-2.09,7.66-2.61,11.67ZM503.79,255.95c-19.61,0-35.51-17.05-35.51-38.09s15.9-38.1,35.51-38.1,35.5,17.05,35.5,38.1-15.9,38.09-35.5,38.09ZM94.37,189.76c-5.75-14.59-18.18-25.1-32.15-31.19-7.51-3.27-19.63-4.59-32.01-4.59H0v28.35h30.21c4.84,0,12.49.34,16.9,2.23,6.98,3.04,14.23,8.29,17.1,15.58,4.48,11.39,5.2,34.62-3.78,43.94-8.4,8.72-18.84,10.04-30.22,10.04H0v28.34h30.21c19.51,0,39.87-3.62,54.41-18.71,16.17-16.77,19.07-50.31,9.75-73.99ZM792.85,239.48c-2.69-11.63-11.71-19.79-25.05-26.47-11.55-5.77-20.2-7.93-26.93-11.92-12.79-7.58-9.11-16.66-2.08-19.89,6.85-3.16,16.65,1.01,17.9,11.26l30-21.67c-11.98-13.7-28.31-17.6-42.21-17.53-21.32.11-47.34,10.94-47.8,37.53-.28,16.4,10.56,25.81,24.09,32.59,7.01,3.51,20.79,7.06,29.59,12.4,19.49,11.85,4.91,27.89-10.04,22.53-5.04-1.8-9.44-7.14-10.3-17.51h-35c0,33.85,19.24,45,53.33,45,16.23,0,28.88-4.79,36.58-14.31,8.31-10.28,10.09-22.62,7.92-32.01ZM655.24,153.91v50l-48.54-50h-29.8v128.55l33.34-.21v-71.67l78.33,76.67v-133.34h-33.33Z"></path>
      <path id="path4" class="cls-1" d="M396.68,4.38v128.34h31.66V4.38h-31.66ZM0,4.38v128.34h31.67V4.38H0ZM628.35,32.72V4.38h-71.67v128.34h71.67v-30h-40v-21.67h18.33l10-28.33h-28.33v-20h40ZM515.01,4.38v50l-48.53-50h-29.8v128.55l33.33-.21V61.05l78.34,76.67V4.38h-33.34ZM328.34,57.72v26.66h25c-7.02,30.14-66.67,30.48-66.67-16.66,0-24.8,17.4-39.15,37.26-38.34,12.44.51,21.01,5.32,27.75,16.67h36.66c-4.06-15.23-13.38-26.94-26.19-34.67-17.3-10.44-39.18-14-58.46-9.42-15.97,3.79-29.99,13.33-39.58,27.71-6.51,9.78-10.48,21.6-10.77,34.71L203.79,4.38h-30.45v66.67L125,4.38h-30v33.34L73.33,4.38h-31.66v128.34h31.66V62.72l51.67,75V61.05l48.34,71.67h30.45v-18.34h46.22c4.45,6.66,9.47,11.05,13.33,18.34h54.63c17.05,0,32.47-2.19,45.49-11.13,17.04-11.69,23.71-26.37,26.44-42.55,1.17-6.92,1.41-13.7,1.78-21.32h-63.34ZM203.79,87.72v-35l24.55,35h-24.55Z"></path>
    </g>
  </g>
</svg>